<svg width="113" height="52" viewBox="0 0 113 52" fill="none" xmlns="http://www.w3.org/2000/svg">
<path d="M112.981 7.06799H0V44.932H112.981V7.06799Z" fill="#00928F"/>
<path d="M112.981 48.4662H0V52.0002H112.981V48.4662Z" fill="#00928F"/>
<path d="M112.981 0H0.000175476V3.53397H112.981V0Z" fill="#00928F"/>
<path d="M10.2564 34.6755V17.3511H17.4572C19.8752 17.3511 21.7352 18.0685 23.0106 19.5033C24.286 20.9382 24.9238 23.0373 24.9238 25.7476C24.9238 28.5641 24.2595 30.743 22.9309 32.3107C21.6023 33.8784 19.7424 34.649 17.3509 34.649H10.2564V34.6755ZM17.2447 20.3536H13.817V31.5401H17.2447C18.9718 31.5401 21.3366 30.5038 21.3366 25.8804C21.3366 21.257 18.9452 20.3536 17.2447 20.3536Z" fill="white"/>
<path d="M28.5109 34.6755V17.3511H32.0449V34.6755H28.5109Z" fill="white"/>
<path d="M65.684 34.6755H53.6472V17.3511H57.1812V31.3541H65.684V34.6755Z" fill="white"/>
<path d="M66.7471 26.093C66.7471 23.2233 67.4911 20.9913 68.979 19.3705C70.467 17.7497 72.5396 16.9525 75.1701 16.9525C77.8007 16.9525 79.8467 17.7497 81.3347 19.3705C82.8227 20.9913 83.5667 23.2233 83.5667 26.093C83.5667 28.9627 82.8227 31.1947 81.3347 32.8155C79.8467 34.4364 77.8007 35.2335 75.1701 35.2335C72.5396 35.2335 70.467 34.4364 68.979 32.8155C67.4911 31.1947 66.7471 28.9627 66.7471 26.093ZM70.2545 26.093C70.2545 28.0062 70.6796 29.4676 71.5565 30.557C72.4333 31.6198 73.629 32.1513 75.1701 32.1513C76.7113 32.1513 77.907 31.6198 78.7573 30.557C79.6076 29.4941 80.0593 28.0062 80.0593 26.093C80.0593 24.1799 79.6341 22.6919 78.7573 21.6291C77.907 20.5662 76.7113 20.0348 75.1701 20.0348C73.629 20.0348 72.4333 20.5662 71.5565 21.6291C70.6796 22.6919 70.2545 24.1799 70.2545 26.093Z" fill="white"/>
<path d="M99.4828 28.3516C99.3234 29.3347 98.9514 30.1584 98.3668 30.7961C97.5697 31.6464 96.5068 32.0716 95.1783 32.0716C93.7169 32.0716 92.5477 31.5401 91.6974 30.4507C90.8472 29.3878 90.4486 27.8999 90.4486 25.9867C90.4486 24.0736 90.8737 22.5856 91.724 21.5228C92.5743 20.4599 93.77 19.9816 95.3111 19.9816C98.4731 19.9816 98.9248 22.8513 98.9248 22.8513H102.565C102.459 21.0179 100.891 16.9525 95.1517 16.9525C92.5743 16.9525 90.5283 17.7762 89.0137 19.3971C87.4992 21.0445 86.7552 23.2765 86.7552 26.093C86.7552 28.8033 87.4726 31.0087 88.934 32.6827C90.3955 34.3567 92.282 35.207 94.6469 35.207C97.9151 35.207 99.164 33.6924 99.908 32.7093V34.7287H102.698V25.3756H95.6034V28.3516H99.4828Z" fill="white"/>
<path d="M47.4031 34.6755H51.2028L45.1445 17.3511H40.7868L34.7552 34.6755H38.4486L39.5911 31.115H46.2605L47.4031 34.6755ZM40.5477 28.1921L42.9657 20.7256L45.3571 28.1921H40.5477Z" fill="white"/>
<path d="M112.981 44.932H0V48.466H112.981V44.932Z" fill="white"/>
<path d="M112.981 3.53406H0V7.06804H112.981V3.53406Z" fill="white"/>
</svg>
